<svg width="371" height="216" viewBox="0 0 371 216" fill="none" xmlns="http://www.w3.org/2000/svg">
<g clip-path="url(#clip0_16_3)">
<path d="M54.5059 130.182C54.5059 130.182 48.1794 215.59 38.9328 215.59C29.6863 215.59 23.3597 130.182 23.3597 130.182H54.5059Z" fill="white"/>
<path d="M17.2764 124.828H58.6426C67.8891 119.718 74.459 111.445 75.6757 101.955H0C1.21665 111.445 7.78656 119.962 17.2764 124.828Z" fill="white"/>
<path d="M50.3693 0C50.3693 0 50.3693 2.67663 51.586 5.59659C52.8026 8.51655 55.7226 11.9232 53.5326 14.1131C51.3427 16.3031 47.936 12.8965 48.4227 6.32658C48.9093 2.67663 50.3693 0 50.3693 0Z" fill="white"/>
<path d="M65.4558 28.713C65.4558 28.713 65.9425 30.6596 65.4558 32.8496C64.9691 35.2829 63.5092 38.2028 65.4558 39.1762C67.4024 40.3928 69.1058 36.7429 67.8891 32.6062C66.9158 30.1729 65.4558 28.713 65.4558 28.713Z" fill="white"/>
<path d="M25.3063 17.2764C25.3063 17.2764 25.5497 19.4664 24.8197 22.143C23.8464 24.8197 21.8997 27.983 24.0897 29.6863C26.2797 31.3896 28.713 27.983 27.7396 22.3864C27.0096 19.2231 25.3063 17.2764 25.3063 17.2764Z" fill="white"/>
<path d="M8.75988 32.3629C8.75988 32.3629 8.75988 34.3096 9.48987 36.2562C10.4632 38.2028 12.1665 40.3928 10.7065 41.8528C9.24654 43.3128 7.05657 41.1228 7.2999 36.7429C7.78656 34.0662 8.75988 32.3629 8.75988 32.3629Z" fill="white"/>
<path d="M55.9659 28.7129C55.7226 28.4696 55.7226 28.2263 55.4793 27.983C55.4793 30.9029 54.9926 33.8229 54.2626 36.4995C54.0193 36.0129 50.856 29.1996 50.856 29.1996C50.856 29.1996 51.0993 38.9328 49.8827 41.8528C46.9627 32.8496 43.7994 24.333 40.1495 16.0598C38.9328 13.1398 37.4728 10.4632 35.7695 8.02989C35.5262 7.78656 35.2829 7.54323 35.0395 7.2999C32.1196 26.0363 27.7396 39.4195 26.2797 43.5561C25.3063 41.6094 24.5763 34.3095 24.5763 34.3095C24.5763 34.3095 21.4131 38.4462 21.1697 38.9328C19.9531 37.2295 19.2231 33.8229 19.4664 30.6596C19.4664 30.6596 -11.1932 97.0887 36.9862 97.0887C80.5423 96.8454 66.4291 46.476 55.9659 28.7129Z" fill="white"/>
<path d="M106.919 83.4122H98.199V98.3502H106.919V100.625H98.199V133.079H106.919V135.354H96V81.1374H106.919V83.4122V83.4122ZM116.767 133.079H125.715V135.354H114.568V81.1374H116.767V133.079V133.079ZM135.563 81.1374V135.354H133.364V81.1374H135.563ZM161.031 81.1374V83.3364H153.297V135.354H151.098V83.3364H143.212V81.1374H161.031ZM179.6 83.4122H170.879V98.3502H179.6V100.625H170.879V133.079H179.6V135.354H168.68V81.1374H179.6V83.4122V83.4122ZM218.404 136.416C213.93 136.416 209.684 134.292 207.03 130.653L208.774 129.364C211.049 132.397 214.613 134.217 218.404 134.217C224.85 134.217 230.157 128.909 230.157 122.387C230.157 115.639 225.001 110.71 219.997 105.857C215.144 101.307 210.215 96.5304 210.215 90.2367C210.215 84.6255 214.84 80 220.452 80C223.712 80 226.821 81.5924 228.793 84.2463L226.973 85.5354C225.456 83.488 223.03 82.199 220.452 82.199C216.054 82.199 212.414 85.8387 212.414 90.2367C212.414 95.5446 216.812 99.7909 221.513 104.265C226.821 109.421 232.356 114.729 232.356 122.387C232.356 130.122 226.063 136.416 218.404 136.416V136.416ZM242.584 81.1374C252.593 81.1374 260.706 89.4026 260.706 99.6393C260.706 109.8 252.593 118.141 242.584 118.141H242.205V135.354H240.006V81.1374H242.584V81.1374ZM242.584 115.942C251.38 115.942 258.507 108.587 258.507 99.6393C258.507 90.6158 251.38 83.3364 242.584 83.3364H242.205V115.942H242.584ZM294.668 83.3364C280.943 83.3364 269.872 94.483 269.872 108.208C269.872 121.933 280.943 133.079 294.668 133.079C308.392 133.079 319.615 121.933 319.615 108.208C319.615 94.483 308.392 83.3364 294.668 83.3364V83.3364ZM294.668 81.1374C309.681 81.1374 321.814 93.2698 321.814 108.208C321.814 123.146 309.681 135.354 294.668 135.354C279.73 135.354 267.597 123.146 267.597 108.208C267.597 93.2698 279.73 81.1374 294.668 81.1374V81.1374ZM350.164 99.6393C350.164 106.691 346.297 112.833 340.534 115.942L350.164 135.354H347.661L338.486 116.852C336.515 117.686 334.316 118.141 332.041 118.141H331.662V135.354H329.463V81.1374H332.041C342.05 81.1374 350.164 89.4026 350.164 99.6393V99.6393ZM331.662 83.3364V115.942H332.041C340.837 115.942 347.965 108.587 347.965 99.6393C347.965 90.6158 340.837 83.3364 332.041 83.3364H331.662V83.3364ZM370.324 81.1374V83.3364H362.59V135.354H360.391V83.3364H352.505V81.1374H370.324Z" fill="white"/>
</g>
<defs>
<clipPath id="clip0_16_3">
<rect width="370.324" height="215.59" fill="white"/>
</clipPath>
</defs>
</svg>
